<mxfile host="app.diagrams.net" modified="2021-04-21T09:14:30.397Z" agent="Mozilla/5.0 (Macintosh; Intel Mac OS X 10_15_7) AppleWebKit/537.36 (KHTML, like Gecko) Chrome/90.0.4430.72 Safari/537.36" etag="tRCA-XAIQnxIiXfQJyRe" version="12.9.0" type="github">
  <diagram id="-oToipq7_auRIPzijGVL" name="Page-1">
    <mxGraphModel dx="925" dy="605" grid="1" gridSize="10" guides="1" tooltips="1" connect="1" arrows="1" fold="1" page="1" pageScale="1" pageWidth="827" pageHeight="1169" math="0" shadow="0">
      <root>
        <mxCell id="0" />
        <mxCell id="1" parent="0" />
        <mxCell id="0ptaCdttGwxAAjHR3Vit-1" value="Spillet startes" style="rounded=0;whiteSpace=wrap;html=1;" parent="1" vertex="1">
          <mxGeometry x="120" y="60" width="120" height="60" as="geometry" />
        </mxCell>
        <mxCell id="0ptaCdttGwxAAjHR3Vit-2" value="Telefon placeres i VR briller og de tages på" style="rounded=0;whiteSpace=wrap;html=1;" parent="1" vertex="1">
          <mxGeometry x="280" y="60" width="120" height="60" as="geometry" />
        </mxCell>
        <mxCell id="0ptaCdttGwxAAjHR3Vit-3" value="Menu vises" style="rounded=0;whiteSpace=wrap;html=1;" parent="1" vertex="1">
          <mxGeometry x="440" y="60" width="120" height="60" as="geometry" />
        </mxCell>
        <mxCell id="0ptaCdttGwxAAjHR3Vit-9" style="edgeStyle=orthogonalEdgeStyle;rounded=0;orthogonalLoop=1;jettySize=auto;html=1;exitX=0.5;exitY=1;exitDx=0;exitDy=0;entryX=0.5;entryY=0;entryDx=0;entryDy=0;" parent="1" source="0ptaCdttGwxAAjHR3Vit-4" target="0ptaCdttGwxAAjHR3Vit-5" edge="1">
          <mxGeometry relative="1" as="geometry" />
        </mxCell>
        <mxCell id="0ptaCdttGwxAAjHR3Vit-4" value="Der trykkes start" style="rounded=0;whiteSpace=wrap;html=1;" parent="1" vertex="1">
          <mxGeometry x="600" y="60" width="120" height="60" as="geometry" />
        </mxCell>
        <mxCell id="0ptaCdttGwxAAjHR3Vit-13" style="edgeStyle=orthogonalEdgeStyle;rounded=0;orthogonalLoop=1;jettySize=auto;html=1;exitX=0;exitY=0.5;exitDx=0;exitDy=0;entryX=1;entryY=0.5;entryDx=0;entryDy=0;" parent="1" source="0ptaCdttGwxAAjHR3Vit-5" target="0ptaCdttGwxAAjHR3Vit-11" edge="1">
          <mxGeometry relative="1" as="geometry" />
        </mxCell>
        <mxCell id="0ptaCdttGwxAAjHR3Vit-5" value="Man går i den retning man kigger når man trykker på VR brillens knap" style="rounded=0;whiteSpace=wrap;html=1;" parent="1" vertex="1">
          <mxGeometry x="600" y="160" width="120" height="60" as="geometry" />
        </mxCell>
        <mxCell id="0ptaCdttGwxAAjHR3Vit-6" value="" style="endArrow=classic;html=1;exitX=1;exitY=0.5;exitDx=0;exitDy=0;entryX=0;entryY=0.5;entryDx=0;entryDy=0;" parent="1" source="0ptaCdttGwxAAjHR3Vit-1" target="0ptaCdttGwxAAjHR3Vit-2" edge="1">
          <mxGeometry width="50" height="50" relative="1" as="geometry">
            <mxPoint x="380" y="260" as="sourcePoint" />
            <mxPoint x="430" y="210" as="targetPoint" />
          </mxGeometry>
        </mxCell>
        <mxCell id="0ptaCdttGwxAAjHR3Vit-7" value="" style="endArrow=classic;html=1;exitX=1;exitY=0.5;exitDx=0;exitDy=0;entryX=0;entryY=0.5;entryDx=0;entryDy=0;" parent="1" source="0ptaCdttGwxAAjHR3Vit-2" target="0ptaCdttGwxAAjHR3Vit-3" edge="1">
          <mxGeometry width="50" height="50" relative="1" as="geometry">
            <mxPoint x="420" y="170" as="sourcePoint" />
            <mxPoint x="460" y="170" as="targetPoint" />
            <Array as="points" />
          </mxGeometry>
        </mxCell>
        <mxCell id="0ptaCdttGwxAAjHR3Vit-8" value="" style="endArrow=classic;html=1;exitX=1;exitY=0.5;exitDx=0;exitDy=0;entryX=0;entryY=0.5;entryDx=0;entryDy=0;" parent="1" source="0ptaCdttGwxAAjHR3Vit-3" target="0ptaCdttGwxAAjHR3Vit-4" edge="1">
          <mxGeometry width="50" height="50" relative="1" as="geometry">
            <mxPoint x="490" y="200" as="sourcePoint" />
            <mxPoint x="530" y="200" as="targetPoint" />
          </mxGeometry>
        </mxCell>
        <mxCell id="0ptaCdttGwxAAjHR3Vit-14" style="edgeStyle=orthogonalEdgeStyle;rounded=0;orthogonalLoop=1;jettySize=auto;html=1;exitX=0;exitY=0.5;exitDx=0;exitDy=0;entryX=1;entryY=0.5;entryDx=0;entryDy=0;" parent="1" source="0ptaCdttGwxAAjHR3Vit-11" target="0ptaCdttGwxAAjHR3Vit-12" edge="1">
          <mxGeometry relative="1" as="geometry" />
        </mxCell>
        <mxCell id="0ptaCdttGwxAAjHR3Vit-11" value="Man finder en plante" style="rounded=0;whiteSpace=wrap;html=1;" parent="1" vertex="1">
          <mxGeometry x="440" y="160" width="120" height="60" as="geometry" />
        </mxCell>
        <mxCell id="0ptaCdttGwxAAjHR3Vit-18" style="edgeStyle=orthogonalEdgeStyle;rounded=0;orthogonalLoop=1;jettySize=auto;html=1;exitX=0;exitY=0.5;exitDx=0;exitDy=0;entryX=1;entryY=0.5;entryDx=0;entryDy=0;" parent="1" source="0ptaCdttGwxAAjHR3Vit-12" edge="1">
          <mxGeometry relative="1" as="geometry">
            <mxPoint x="240" y="190" as="targetPoint" />
          </mxGeometry>
        </mxCell>
        <mxCell id="0ptaCdttGwxAAjHR3Vit-12" value="Man går tæt nok på til at se infoboxen" style="rounded=0;whiteSpace=wrap;html=1;" parent="1" vertex="1">
          <mxGeometry x="280" y="160" width="120" height="60" as="geometry" />
        </mxCell>
        <mxCell id="0ptaCdttGwxAAjHR3Vit-19" style="edgeStyle=orthogonalEdgeStyle;rounded=0;orthogonalLoop=1;jettySize=auto;html=1;exitX=0.5;exitY=1;exitDx=0;exitDy=0;entryX=0.5;entryY=0;entryDx=0;entryDy=0;" parent="1" target="0ptaCdttGwxAAjHR3Vit-16" edge="1">
          <mxGeometry relative="1" as="geometry">
            <mxPoint x="180" y="220" as="sourcePoint" />
          </mxGeometry>
        </mxCell>
        <mxCell id="0ptaCdttGwxAAjHR3Vit-20" style="edgeStyle=orthogonalEdgeStyle;rounded=0;orthogonalLoop=1;jettySize=auto;html=1;exitX=0.5;exitY=1;exitDx=0;exitDy=0;entryX=0.25;entryY=0;entryDx=0;entryDy=0;" parent="1" target="0ptaCdttGwxAAjHR3Vit-17" edge="1">
          <mxGeometry relative="1" as="geometry">
            <mxPoint x="180" y="220" as="sourcePoint" />
            <Array as="points">
              <mxPoint x="180" y="240" />
              <mxPoint x="310" y="240" />
            </Array>
          </mxGeometry>
        </mxCell>
        <mxCell id="0ptaCdttGwxAAjHR3Vit-16" value="Man samler planten op" style="rounded=0;whiteSpace=wrap;html=1;" parent="1" vertex="1">
          <mxGeometry x="120" y="260" width="120" height="60" as="geometry" />
        </mxCell>
        <mxCell id="0ptaCdttGwxAAjHR3Vit-21" style="edgeStyle=orthogonalEdgeStyle;rounded=0;orthogonalLoop=1;jettySize=auto;html=1;exitX=0.75;exitY=0;exitDx=0;exitDy=0;entryX=0.25;entryY=1;entryDx=0;entryDy=0;" parent="1" source="0ptaCdttGwxAAjHR3Vit-17" target="0ptaCdttGwxAAjHR3Vit-5" edge="1">
          <mxGeometry relative="1" as="geometry" />
        </mxCell>
        <mxCell id="0ptaCdttGwxAAjHR3Vit-17" value="Man samler ikke planten op" style="rounded=0;whiteSpace=wrap;html=1;" parent="1" vertex="1">
          <mxGeometry x="280" y="260" width="120" height="60" as="geometry" />
        </mxCell>
        <mxCell id="0ptaCdttGwxAAjHR3Vit-22" value="&lt;span style=&quot;white-space: normal&quot;&gt;Man sammenligner infoboxen med tjekliste data&lt;/span&gt;" style="rhombus;whiteSpace=wrap;html=1;" parent="1" vertex="1">
          <mxGeometry x="120" y="150" width="120" height="80" as="geometry" />
        </mxCell>
        <mxCell id="0ptaCdttGwxAAjHR3Vit-23" value="Planten er rigtig" style="rounded=0;whiteSpace=wrap;html=1;" parent="1" vertex="1">
          <mxGeometry x="120" y="350" width="120" height="60" as="geometry" />
        </mxCell>
        <mxCell id="0ptaCdttGwxAAjHR3Vit-24" value="Planten er forkert" style="rounded=0;whiteSpace=wrap;html=1;" parent="1" vertex="1">
          <mxGeometry x="280" y="350" width="120" height="60" as="geometry" />
        </mxCell>
        <mxCell id="0ptaCdttGwxAAjHR3Vit-25" value="" style="endArrow=classic;html=1;exitX=0.5;exitY=1;exitDx=0;exitDy=0;entryX=0.5;entryY=0;entryDx=0;entryDy=0;" parent="1" source="0ptaCdttGwxAAjHR3Vit-16" target="0ptaCdttGwxAAjHR3Vit-23" edge="1">
          <mxGeometry width="50" height="50" relative="1" as="geometry">
            <mxPoint x="380" y="350" as="sourcePoint" />
            <mxPoint x="430" y="300" as="targetPoint" />
          </mxGeometry>
        </mxCell>
        <mxCell id="0ptaCdttGwxAAjHR3Vit-26" value="" style="endArrow=classic;html=1;entryX=0.5;entryY=0;entryDx=0;entryDy=0;" parent="1" target="0ptaCdttGwxAAjHR3Vit-24" edge="1">
          <mxGeometry width="50" height="50" relative="1" as="geometry">
            <mxPoint x="180" y="330" as="sourcePoint" />
            <mxPoint x="430" y="300" as="targetPoint" />
            <Array as="points">
              <mxPoint x="340" y="330" />
            </Array>
          </mxGeometry>
        </mxCell>
        <mxCell id="0ptaCdttGwxAAjHR3Vit-32" style="edgeStyle=orthogonalEdgeStyle;rounded=0;orthogonalLoop=1;jettySize=auto;html=1;exitX=1;exitY=0.5;exitDx=0;exitDy=0;entryX=0.75;entryY=1;entryDx=0;entryDy=0;" parent="1" source="0ptaCdttGwxAAjHR3Vit-27" target="0ptaCdttGwxAAjHR3Vit-5" edge="1">
          <mxGeometry relative="1" as="geometry">
            <Array as="points">
              <mxPoint x="260" y="470" />
              <mxPoint x="260" y="520" />
              <mxPoint x="690" y="520" />
            </Array>
          </mxGeometry>
        </mxCell>
        <mxCell id="0ptaCdttGwxAAjHR3Vit-27" value="Du får et flueben på din tjekliste" style="rounded=0;whiteSpace=wrap;html=1;" parent="1" vertex="1">
          <mxGeometry x="120" y="440" width="120" height="60" as="geometry" />
        </mxCell>
        <mxCell id="0ptaCdttGwxAAjHR3Vit-31" style="edgeStyle=orthogonalEdgeStyle;rounded=0;orthogonalLoop=1;jettySize=auto;html=1;exitX=1;exitY=0.5;exitDx=0;exitDy=0;entryX=0.5;entryY=1;entryDx=0;entryDy=0;" parent="1" source="0ptaCdttGwxAAjHR3Vit-28" target="0ptaCdttGwxAAjHR3Vit-5" edge="1">
          <mxGeometry relative="1" as="geometry" />
        </mxCell>
        <mxCell id="0ptaCdttGwxAAjHR3Vit-28" value="Du får ikke et flueben på din tjekliste" style="rounded=0;whiteSpace=wrap;html=1;" parent="1" vertex="1">
          <mxGeometry x="280" y="440" width="120" height="60" as="geometry" />
        </mxCell>
        <mxCell id="0ptaCdttGwxAAjHR3Vit-29" value="" style="endArrow=classic;html=1;exitX=0.5;exitY=1;exitDx=0;exitDy=0;entryX=0.5;entryY=0;entryDx=0;entryDy=0;" parent="1" source="0ptaCdttGwxAAjHR3Vit-23" target="0ptaCdttGwxAAjHR3Vit-27" edge="1">
          <mxGeometry width="50" height="50" relative="1" as="geometry">
            <mxPoint x="380" y="380" as="sourcePoint" />
            <mxPoint x="430" y="330" as="targetPoint" />
          </mxGeometry>
        </mxCell>
        <mxCell id="0ptaCdttGwxAAjHR3Vit-30" value="" style="endArrow=classic;html=1;exitX=0.5;exitY=1;exitDx=0;exitDy=0;entryX=0.5;entryY=0;entryDx=0;entryDy=0;" parent="1" source="0ptaCdttGwxAAjHR3Vit-24" target="0ptaCdttGwxAAjHR3Vit-28" edge="1">
          <mxGeometry width="50" height="50" relative="1" as="geometry">
            <mxPoint x="380" y="380" as="sourcePoint" />
            <mxPoint x="430" y="330" as="targetPoint" />
          </mxGeometry>
        </mxCell>
        <mxCell id="0ptaCdttGwxAAjHR3Vit-33" value="Du får alle planterne rigtigt" style="rounded=0;whiteSpace=wrap;html=1;" parent="1" vertex="1">
          <mxGeometry x="120" y="530" width="120" height="60" as="geometry" />
        </mxCell>
        <mxCell id="0ptaCdttGwxAAjHR3Vit-34" value="Vinder" style="rounded=0;whiteSpace=wrap;html=1;" parent="1" vertex="1">
          <mxGeometry x="280" y="530" width="120" height="60" as="geometry" />
        </mxCell>
        <mxCell id="0ptaCdttGwxAAjHR3Vit-35" value="" style="endArrow=classic;html=1;exitX=1;exitY=0.5;exitDx=0;exitDy=0;entryX=0;entryY=0.5;entryDx=0;entryDy=0;" parent="1" source="0ptaCdttGwxAAjHR3Vit-33" target="0ptaCdttGwxAAjHR3Vit-34" edge="1">
          <mxGeometry width="50" height="50" relative="1" as="geometry">
            <mxPoint x="390" y="520" as="sourcePoint" />
            <mxPoint x="440" y="470" as="targetPoint" />
          </mxGeometry>
        </mxCell>
        <mxCell id="0ptaCdttGwxAAjHR3Vit-36" value="" style="endArrow=classic;html=1;exitX=0.5;exitY=1;exitDx=0;exitDy=0;entryX=0.5;entryY=0;entryDx=0;entryDy=0;" parent="1" source="0ptaCdttGwxAAjHR3Vit-27" target="0ptaCdttGwxAAjHR3Vit-33" edge="1">
          <mxGeometry width="50" height="50" relative="1" as="geometry">
            <mxPoint x="390" y="520" as="sourcePoint" />
            <mxPoint x="440" y="470" as="targetPoint" />
          </mxGeometry>
        </mxCell>
        <mxCell id="0ptaCdttGwxAAjHR3Vit-37" value="" style="endArrow=classic;html=1;exitX=0.5;exitY=1;exitDx=0;exitDy=0;entryX=0.5;entryY=0;entryDx=0;entryDy=0;" parent="1" source="0ptaCdttGwxAAjHR3Vit-34" target="0ptaCdttGwxAAjHR3Vit-3" edge="1">
          <mxGeometry width="50" height="50" relative="1" as="geometry">
            <mxPoint x="380" y="360" as="sourcePoint" />
            <mxPoint x="430" y="310" as="targetPoint" />
            <Array as="points">
              <mxPoint x="340" y="610" />
              <mxPoint x="50" y="610" />
              <mxPoint x="50" y="20" />
              <mxPoint x="500" y="20" />
            </Array>
          </mxGeometry>
        </mxCell>
      </root>
    </mxGraphModel>
  </diagram>
</mxfile>
